<svg width="200" height="200" xmlns="http://www.w3.org/2000/svg">
  <!-- QR Code Background -->
  <rect width="200" height="200" fill="white" stroke="#000" stroke-width="2"/>
  
  <!-- QR Code Pattern -->
  <!-- Corner squares -->
  <rect x="10" y="10" width="30" height="30" fill="black"/>
  <rect x="15" y="15" width="20" height="20" fill="white"/>
  <rect x="20" y="20" width="10" height="10" fill="black"/>
  
  <rect x="160" y="10" width="30" height="30" fill="black"/>
  <rect x="165" y="15" width="20" height="20" fill="white"/>
  <rect x="170" y="20" width="10" height="10" fill="black"/>
  
  <rect x="10" y="160" width="30" height="30" fill="black"/>
  <rect x="15" y="165" width="20" height="20" fill="white"/>
  <rect x="20" y="170" width="10" height="10" fill="black"/>
  
  <!-- Data pattern -->
  <rect x="50" y="10" width="5" height="5" fill="black"/>
  <rect x="60" y="10" width="5" height="5" fill="black"/>
  <rect x="70" y="10" width="5" height="5" fill="black"/>
  <rect x="90" y="10" width="5" height="5" fill="black"/>
  <rect x="100" y="10" width="5" height="5" fill="black"/>
  <rect x="120" y="10" width="5" height="5" fill="black"/>
  <rect x="140" y="10" width="5" height="5" fill="black"/>
  
  <rect x="10" y="50" width="5" height="5" fill="black"/>
  <rect x="50" y="50" width="5" height="5" fill="black"/>
  <rect x="60" y="50" width="5" height="5" fill="black"/>
  <rect x="80" y="50" width="5" height="5" fill="black"/>
  <rect x="90" y="50" width="5" height="5" fill="black"/>
  <rect x="110" y="50" width="5" height="5" fill="black"/>
  <rect x="130" y="50" width="5" height="5" fill="black"/>
  <rect x="150" y="50" width="5" height="5" fill="black"/>
  <rect x="170" y="50" width="5" height="5" fill="black"/>
  <rect x="190" y="50" width="5" height="5" fill="black"/>
  
  <rect x="10" y="60" width="5" height="5" fill="black"/>
  <rect x="30" y="60" width="5" height="5" fill="black"/>
  <rect x="70" y="60" width="5" height="5" fill="black"/>
  <rect x="90" y="60" width="5" height="5" fill="black"/>
  <rect x="110" y="60" width="5" height="5" fill="black"/>
  <rect x="140" y="60" width="5" height="5" fill="black"/>
  <rect x="160" y="60" width="5" height="5" fill="black"/>
  <rect x="180" y="60" width="5" height="5" fill="black"/>
  
  <rect x="20" y="70" width="5" height="5" fill="black"/>
  <rect x="40" y="70" width="5" height="5" fill="black"/>
  <rect x="60" y="70" width="5" height="5" fill="black"/>
  <rect x="80" y="70" width="5" height="5" fill="black"/>
  <rect x="120" y="70" width="5" height="5" fill="black"/>
  <rect x="150" y="70" width="5" height="5" fill="black"/>
  <rect x="170" y="70" width="5" height="5" fill="black"/>
  <rect x="190" y="70" width="5" height="5" fill="black"/>
  
  <rect x="10" y="80" width="5" height="5" fill="black"/>
  <rect x="30" y="80" width="5" height="5" fill="black"/>
  <rect x="50" y="80" width="5" height="5" fill="black"/>
  <rect x="90" y="80" width="5" height="5" fill="black"/>
  <rect x="110" y="80" width="5" height="5" fill="black"/>
  <rect x="130" y="80" width="5" height="5" fill="black"/>
  <rect x="160" y="80" width="5" height="5" fill="black"/>
  <rect x="180" y="80" width="5" height="5" fill="black"/>
  
  <rect x="20" y="90" width="5" height="5" fill="black"/>
  <rect x="60" y="90" width="5" height="5" fill="black"/>
  <rect x="80" y="90" width="5" height="5" fill="black"/>
  <rect x="100" y="90" width="5" height="5" fill="black"/>
  <rect x="140" y="90" width="5" height="5" fill="black"/>
  <rect x="170" y="90" width="5" height="5" fill="black"/>
  <rect x="190" y="90" width="5" height="5" fill="black"/>
  
  <rect x="10" y="100" width="5" height="5" fill="black"/>
  <rect x="40" y="100" width="5" height="5" fill="black"/>
  <rect x="70" y="100" width="5" height="5" fill="black"/>
  <rect x="90" y="100" width="5" height="5" fill="black"/>
  <rect x="120" y="100" width="5" height="5" fill="black"/>
  <rect x="150" y="100" width="5" height="5" fill="black"/>
  <rect x="180" y="100" width="5" height="5" fill="black"/>
  
  <rect x="30" y="110" width="5" height="5" fill="black"/>
  <rect x="50" y="110" width="5" height="5" fill="black"/>
  <rect x="80" y="110" width="5" height="5" fill="black"/>
  <rect x="110" y="110" width="5" height="5" fill="black"/>
  <rect x="130" y="110" width="5" height="5" fill="black"/>
  <rect x="160" y="110" width="5" height="5" fill="black"/>
  <rect x="190" y="110" width="5" height="5" fill="black"/>
  
  <rect x="10" y="120" width="5" height="5" fill="black"/>
  <rect x="40" y="120" width="5" height="5" fill="black"/>
  <rect x="60" y="120" width="5" height="5" fill="black"/>
  <rect x="90" y="120" width="5" height="5" fill="black"/>
  <rect x="120" y="120" width="5" height="5" fill="black"/>
  <rect x="140" y="120" width="5" height="5" fill="black"/>
  <rect x="170" y="120" width="5" height="5" fill="black"/>
  
  <rect x="20" y="130" width="5" height="5" fill="black"/>
  <rect x="50" y="130" width="5" height="5" fill="black"/>
  <rect x="70" y="130" width="5" height="5" fill="black"/>
  <rect x="100" y="130" width="5" height="5" fill="black"/>
  <rect x="130" y="130" width="5" height="5" fill="black"/>
  <rect x="150" y="130" width="5" height="5" fill="black"/>
  <rect x="180" y="130" width="5" height="5" fill="black"/>
  
  <rect x="10" y="140" width="5" height="5" fill="black"/>
  <rect x="30" y="140" width="5" height="5" fill="black"/>
  <rect x="60" y="140" width="5" height="5" fill="black"/>
  <rect x="80" y="140" width="5" height="5" fill="black"/>
  <rect x="110" y="140" width="5" height="5" fill="black"/>
  <rect x="140" y="140" width="5" height="5" fill="black"/>
  <rect x="160" y="140" width="5" height="5" fill="black"/>
  <rect x="190" y="140" width="5" height="5" fill="black"/>
  
  <rect x="50" y="150" width="5" height="5" fill="black"/>
  <rect x="70" y="150" width="5" height="5" fill="black"/>
  <rect x="90" y="150" width="5" height="5" fill="black"/>
  <rect x="120" y="150" width="5" height="5" fill="black"/>
  <rect x="150" y="150" width="5" height="5" fill="black"/>
  <rect x="170" y="150" width="5" height="5" fill="black"/>
  
  <rect x="50" y="170" width="5" height="5" fill="black"/>
  <rect x="60" y="170" width="5" height="5" fill="black"/>
  <rect x="80" y="170" width="5" height="5" fill="black"/>
  <rect x="100" y="170" width="5" height="5" fill="black"/>
  <rect x="120" y="170" width="5" height="5" fill="black"/>
  <rect x="140" y="170" width="5" height="5" fill="black"/>
  <rect x="160" y="170" width="5" height="5" fill="black"/>
  <rect x="180" y="170" width="5" height="5" fill="black"/>
  
  <rect x="50" y="180" width="5" height="5" fill="black"/>
  <rect x="70" y="180" width="5" height="5" fill="black"/>
  <rect x="90" y="180" width="5" height="5" fill="black"/>
  <rect x="110" y="180" width="5" height="5" fill="black"/>
  <rect x="130" y="180" width="5" height="5" fill="black"/>
  <rect x="150" y="180" width="5" height="5" fill="black"/>
  <rect x="170" y="180" width="5" height="5" fill="black"/>
  <rect x="190" y="180" width="5" height="5" fill="black"/>
  
  <rect x="60" y="190" width="5" height="5" fill="black"/>
  <rect x="80" y="190" width="5" height="5" fill="black"/>
  <rect x="100" y="190" width="5" height="5" fill="black"/>
  <rect x="120" y="190" width="5" height="5" fill="black"/>
  <rect x="140" y="190" width="5" height="5" fill="black"/>
  <rect x="160" y="190" width="5" height="5" fill="black"/>
  <rect x="180" y="190" width="5" height="5" fill="black"/>
  
  <!-- Bank Transfer Label -->
  <text x="100" y="215" text-anchor="middle" font-family="Arial, sans-serif" font-size="12" fill="black">Bank Transfer QR</text>
</svg>