<?xml version="1.0" encoding="UTF-8"?>
<svg width="300" height="300" viewBox="0 0 300 300" xmlns="http://www.w3.org/2000/svg">
  <!-- Background -->
  <rect width="300" height="300" fill="#ffffff" stroke="#e0e0e0" stroke-width="2"/>
  
  <!-- FonePay Brand Colors Background -->
  <rect x="20" y="20" width="260" height="260" fill="#007bff" rx="15"/>
  
  <!-- QR Code Pattern (Simplified representation) -->
  <g fill="#ffffff">
    <!-- Corner squares -->
    <rect x="40" y="40" width="60" height="60" fill="#ffffff"/>
    <rect x="50" y="50" width="40" height="40" fill="#007bff"/>
    <rect x="60" y="60" width="20" height="20" fill="#ffffff"/>
    
    <rect x="200" y="40" width="60" height="60" fill="#ffffff"/>
    <rect x="210" y="50" width="40" height="40" fill="#007bff"/>
    <rect x="220" y="60" width="20" height="20" fill="#ffffff"/>
    
    <rect x="40" y="200" width="60" height="60" fill="#ffffff"/>
    <rect x="50" y="210" width="40" height="40" fill="#007bff"/>
    <rect x="60" y="220" width="20" height="20" fill="#ffffff"/>
    
    <!-- Data pattern -->
    <rect x="120" y="40" width="10" height="10"/>
    <rect x="140" y="40" width="10" height="10"/>
    <rect x="160" y="40" width="10" height="10"/>
    <rect x="180" y="40" width="10" height="10"/>
    
    <rect x="40" y="120" width="10" height="10"/>
    <rect x="60" y="120" width="10" height="10"/>
    <rect x="80" y="120" width="10" height="10"/>
    <rect x="120" y="120" width="10" height="10"/>
    <rect x="140" y="120" width="10" height="10"/>
    <rect x="160" y="120" width="10" height="10"/>
    <rect x="180" y="120" width="10" height="10"/>
    <rect x="200" y="120" width="10" height="10"/>
    <rect x="220" y="120" width="10" height="10"/>
    <rect x="240" y="120" width="10" height="10"/>
    <rect x="260" y="120" width="10" height="10"/>
    
    <rect x="120" y="140" width="10" height="10"/>
    <rect x="160" y="140" width="10" height="10"/>
    <rect x="200" y="140" width="10" height="10"/>
    <rect x="240" y="140" width="10" height="10"/>
    
    <rect x="40" y="160" width="10" height="10"/>
    <rect x="80" y="160" width="10" height="10"/>
    <rect x="120" y="160" width="10" height="10"/>
    <rect x="140" y="160" width="10" height="10"/>
    <rect x="180" y="160" width="10" height="10"/>
    <rect x="220" y="160" width="10" height="10"/>
    <rect x="260" y="160" width="10" height="10"/>
    
    <rect x="120" y="180" width="10" height="10"/>
    <rect x="140" y="180" width="10" height="10"/>
    <rect x="180" y="180" width="10" height="10"/>
    <rect x="200" y="180" width="10" height="10"/>
    <rect x="240" y="180" width="10" height="10"/>
    
    <rect x="120" y="220" width="10" height="10"/>
    <rect x="140" y="220" width="10" height="10"/>
    <rect x="160" y="220" width="10" height="10"/>
    <rect x="180" y="220" width="10" height="10"/>
    <rect x="200" y="220" width="10" height="10"/>
    <rect x="220" y="220" width="10" height="10"/>
    <rect x="240" y="220" width="10" height="10"/>
    <rect x="260" y="220" width="10" height="10"/>
    
    <rect x="120" y="240" width="10" height="10"/>
    <rect x="160" y="240" width="10" height="10"/>
    <rect x="200" y="240" width="10" height="10"/>
    <rect x="240" y="240" width="10" height="10"/>
    <rect x="260" y="240" width="10" height="10"/>
  </g>
  
  <!-- FonePay Logo/Text -->
  <text x="150" y="290" text-anchor="middle" font-family="Arial, sans-serif" font-size="14" font-weight="bold" fill="#007bff">FonePay QR Code</text>
</svg>